PathFileType	4	(X/Y/Z)	C:/Users/opensim2020/Desktop/walking_exp_matlab/subject02_walking06_static.trc																																																																																																																									
DataRate	CameraRate	NumFrames	NumMarkers	Units	OrigDataRate	OrigDataStartFrame	OrigNumFrames																																																																																																																					
100	100	6	41	mm	100	144	287																																																																																																																					
Frame#	Time	LFHD			RFHD			LBHD			RBHD			C7			T10			CLAV			STRN			RBAK			LSHO			LUPA			LELB			LFRM			LWRA			LWRB			LFIN			RSHO			RUPA			RELB			RFRM			RWRA			RWRB			RFIN			LASI			RASI			LPSI			RPSI			LTHI			LKNE			LTIB			LANK			LHEE			LTOE			RTHI			RKNE			RTIB			RANK			RHEE			RTOE			*39			*40		
		X1	Y1	Z1	X2	Y2	Z2	X3	Y3	Z3	X4	Y4	Z4	X5	Y5	Z5	X6	Y6	Z6	X7	Y7	Z7	X8	Y8	Z8	X9	Y9	Z9	X10	Y10	Z10	X11	Y11	Z11	X12	Y12	Z12	X13	Y13	Z13	X14	Y14	Z14	X15	Y15	Z15	X16	Y16	Z16	X17	Y17	Z17	X18	Y18	Z18	X19	Y19	Z19	X20	Y20	Z20	X21	Y21	Z21	X22	Y22	Z22	X23	Y23	Z23	X24	Y24	Z24	X25	Y25	Z25	X26	Y26	Z26	X27	Y27	Z27	X28	Y28	Z28	X29	Y29	Z29	X30	Y30	Z30	X31	Y31	Z31	X32	Y32	Z32	X33	Y33	Z33	X34	Y34	Z34	X35	Y35	Z35	X36	Y36	Z36	X37	Y37	Z37	X38	Y38	Z38	X39	Y39	Z39	X40	Y40	Z40	X41	Y41	Z41
																																																																																																																												
144	1.43	18.46594	1751.72864	-692.54651	5.49822	1732.27979	-550.81421	-103.69693	1665.64099	-715.05426	-129.7092	1643.48303	-575.19238	-152.46904	1522.22864	-641.59418	-191.95525	1247.89929	-639.10077	-1.50919	1472.57617	-650.02319	63.64432	1305.87036	-639.26471	-191.0253	1350.16638	-568.86182	-58.50466	1515.16687	-816.9173	-53.005	1333.44104	-927.23358	-57.65765	1192.78796	-957.81329	-34.87331	1058.49536	-965.67365	18.73633	939.45471	-915.43811	-16.91015	936.94904	-959.77972	9.61852	876.43567	-956.84882	-57.28026	1509.38464	-459.22189	-57.85921	1336.32971	-346.43909	-33.81238	1189.65454	-317.81256	5.9961	1072.13599	-311.29483	49.83907	948.5863	-347.97925	19.20208	942.00348	-301.49377	59.94374	883.77155	-313.47116	40.96471	993.64069	-758.58148	31.37881	985.59601	-507.99167	-171.32883	1028.31763	-690.14429	-180.1115	1029.74646	-575.22498	-34.57747	686.25116	-838.99719	-69.01547	484.23392	-827.87964	-125.06235	299.70987	-851.96722	-116.16747	72.54504	-847.22809	-151.61191	40.91731	-801.24384	42.87277	31.00535	-860.33752	-57.86714	682.71667	-415.43542	-58.41087	471.42126	-432.15787	-110.6322	292.09369	-404.16956	-133.62239	96.98915	-415.26733	-166.45151	37.56921	-465.26822	15.48037	37.90873	-379.75565	-97.97507	1807.83118	-614.24957	3360.30249	1033.80774	2845.22876
145	1.44	18.43912	1751.73315	-692.43677	5.4142	1732.27087	-550.68219	-103.69881	1665.62085	-714.95532	-129.74956	1643.65845	-575.06158	-152.46364	1522.23181	-641.47992	-191.94913	1247.87329	-639.12878	-1.47253	1472.62073	-649.91382	63.67245	1305.87891	-639.18518	-190.97079	1350.24072	-569.60419	-58.46032	1515.22522	-816.79205	-52.977	1333.52356	-927.185	-57.5748	1192.87708	-957.79761	-34.68935	1058.68884	-965.86597	18.95429	939.58392	-915.56885	-16.80218	937.10858	-959.84808	9.66695	876.5365	-956.80737	-57.25825	1509.32239	-459.13614	-57.48079	1336.21912	-346.73792	-33.7965	1189.56213	-317.77118	6.13942	1072.05469	-311.26743	50.01809	948.60309	-348.03775	19.17586	942.08282	-301.24222	60.0934	883.73889	-313.62711	41.01823	993.65826	-758.55499	31.34796	985.57001	-508.00357	-171.24809	1028.3136	-690.2193	-180.08234	1029.74451	-575.30402	-34.49179	686.25177	-839.00726	-68.96816	484.21954	-827.8916	-125.09274	299.7381	-852.03003	-116.1386	72.53343	-847.22034	-151.59424	40.95568	-801.23779	42.84776	30.98794	-860.32281	-57.95383	682.72113	-415.50848	-58.4914	471.42007	-432.16531	-110.69833	292.08878	-404.20599	-133.63803	96.96999	-415.29205	-166.47679	37.5758	-465.25909	15.47538	37.91944	-379.74136	-98.03532	1807.78699	-614.09259	3357.69336	1034.02283	2845.8103
146	1.45	18.43476	1751.73645	-692.29053	5.39806	1732.29333	-550.54669	-103.71349	1665.60083	-714.84332	-129.18617	1643.73047	-575.02319	-152.44702	1522.23547	-641.32727	-191.91591	1247.87512	-639.16895	-1.4576	1472.66382	-649.80273	63.70939	1305.88904	-639.12378	-190.52406	1350.01123	-569.776	-58.4269	1515.31946	-816.68042	-52.92081	1333.62439	-927.10553	-57.47889	1192.99182	-957.77344	-34.58928	1058.74475	-965.75061	19.13674	939.74219	-915.66248	-16.53264	937.18445	-959.97583	9.99246	876.67053	-957.06091	-57.2177	1509.35559	-458.98978	-57.24295	1336.05542	-346.80405	-33.76527	1189.49402	-317.72244	6.16936	1071.97522	-311.29889	50.11057	948.58893	-348.13641	19.3262	942.04242	-301.31937	60.20419	883.66956	-313.728	41.08654	993.66669	-758.54962	31.33619	985.57312	-508.03662	-171.18571	1028.33142	-690.28406	-180.06879	1029.75439	-575.35815	-34.37779	686.2334	-839.02118	-68.92577	484.22601	-827.92847	-125.00288	299.68234	-851.98639	-116.15262	72.52049	-847.21252	-151.60031	40.95361	-801.24762	42.85728	30.99747	-860.32648	-57.98343	682.74615	-415.55457	-58.51663	471.44586	-432.09918	-110.72975	292.08832	-404.237	-133.63852	96.98512	-415.27844	-166.64906	37.65391	-465.23203	15.46319	37.9334	-379.74857	-98.10355	1807.79138	-614.03528	3357.39673	1034.04077	2845.79224
147	1.46	18.34385	1751.65137	-692.05054	5.38345	1732.30908	-550.41821	-103.73193	1665.5791	-714.67847	-129.17644	1643.72827	-574.91223	-152.43619	1522.2323	-641.22791	-191.90169	1247.8634	-639.18768	-1.47078	1472.68469	-649.69952	63.76547	1305.92065	-639.06561	-190.91183	1350.15991	-569.55676	-58.36757	1515.42456	-816.55792	-52.85882	1333.78638	-927.0368	-57.37161	1193.12329	-957.76453	-34.42868	1058.9646	-966.03381	19.15221	939.90887	-915.85187	-16.26289	937.23767	-959.82739	10.16168	876.82434	-957.1308	-57.18806	1509.35681	-458.86188	-57.46247	1336.08398	-346.60275	-33.71413	1189.43018	-317.71317	6.22444	1071.94055	-311.30011	50.23488	948.52301	-348.22992	19.43236	941.94574	-301.40784	60.3787	883.64026	-313.79587	41.13939	993.66644	-758.56488	31.2563	985.58356	-508.05795	-171.11432	1028.36108	-690.38818	-180.10333	1029.776	-575.46582	-34.30386	686.24817	-839.05664	-68.87711	484.20773	-827.96216	-125.03616	299.7583	-852.10583	-116.14179	72.54377	-847.2619	-151.60373	40.9294	-801.24567	42.86149	30.98951	-860.32013	-57.69435	682.83911	-415.51364	-58.60922	471.44647	-432.01425	-110.75175	292.10587	-404.23996	-133.65196	96.99058	-415.2948	-166.50012	37.58239	-465.26883	15.45146	37.93067	-379.74112	-98.12092	1807.77075	-613.87793	3360.27002	1033.72168	2845.18091
148	1.47	18.28638	1751.65723	-691.90033	5.40056	1732.33008	-550.3089	-103.73642	1665.56055	-714.55444	-129.16759	1643.68079	-574.78394	-152.44312	1522.23474	-641.12561	-191.90549	1247.87402	-639.19501	-1.42733	1472.74707	-649.59235	63.80498	1305.94531	-639.00189	-190.97063	1350.06934	-568.75665	-58.31639	1515.54431	-816.46594	-52.6892	1333.84424	-926.9646	-57.26036	1193.27698	-957.71521	-34.356	1059.00208	-965.7688	19.44993	940.07599	-915.81805	-16.22706	937.46741	-959.99823	10.27157	876.97662	-957.12494	-57.11999	1509.34485	-458.79001	-57.51004	1335.93884	-346.48203	-33.68009	1189.33862	-317.71069	6.34135	1071.8689	-311.27686	50.35068	948.47638	-348.27582	19.71899	941.73492	-301.86597	60.45049	883.58337	-313.94437	41.19198	993.69635	-758.56213	31.22378	985.60712	-508.10507	-171.07977	1028.37451	-690.49762	-180.13083	1029.79749	-575.58185	-34.25409	686.19562	-839.03003	-68.83653	484.21838	-828.01117	-124.98957	299.71207	-852.08887	-116.14358	72.5242	-847.26794	-151.60321	40.94702	-801.2663	42.86174	30.96994	-860.32355	-57.80757	682.67206	-416.05975	-58.50146	471.47586	-432.19937	-110.76158	292.10608	-404.26337	-133.65173	97.00515	-415.30896	-166.46941	37.49913	-465.27023	15.46023	37.90959	-379.74994	-98.13196	1807.75098	-613.74774	3360.28564	1033.89258	2845.0293
149	1.48	18.27426	1751.73682	-691.86975	5.4162	1732.3363	-550.22003	-103.81818	1665.60437	-714.43872	-129.15114	1643.67017	-574.64728	-152.41254	1522.23755	-641.0426	-191.88364	1247.88354	-639.20551	-1.41236	1472.82434	-649.47467	63.8798	1305.99316	-638.95654	-190.84608	1349.81909	-568.94318	-58.22965	1515.68115	-816.3476	-52.60263	1334.08069	-926.83441	-57.13756	1193.43689	-957.64966	-34.20818	1059.21179	-965.83844	19.4725	940.22565	-915.84827	-16.10528	937.63062	-959.97034	10.41244	877.14117	-957.09576	-57.09147	1509.31287	-458.69058	-57.36581	1335.85876	-346.42804	-33.58612	1189.30261	-317.71622	6.4003	1071.80933	-311.29889	50.40053	948.44714	-348.31891	19.6794	941.82422	-301.57669	60.56721	883.52222	-314.00391	41.21385	993.71814	-758.56085	31.12261	985.67255	-508.10861	-171.04366	1028.3905	-690.60529	-180.14719	1029.78687	-575.69965	-34.18743	686.19556	-839.10303	-68.74344	484.19193	-828.11139	-124.90602	299.67764	-852.04388	-116.12812	72.61637	-847.45325	-151.59337	40.95729	-801.26276	42.85711	30.99359	-860.32587	-57.77459	682.83582	-415.56842	-58.65192	471.39999	-432.03381	-110.77149	292.09839	-404.31055	-133.66528	97.00001	-415.2908	-166.49741	37.46671	-465.25958	15.45612	37.935	-379.73325	-98.17287	1807.75549	-613.60291	3360.31958	1033.95996	2845.07837
